<svg width="60" height="50" viewBox="0 0 60 50" fill="none" xmlns="http://www.w3.org/2000/svg">
<path d="M4.40411 14.6349C-19.1555 48.4213 59.4993 66.3141 59.1655 27.9705C58.9437 2.41625 23.6299 -12.9367 4.40411 14.6349Z" fill="#4050A5"/>
<path d="M24.8597 21.432C25.3237 21.24 25.8037 21.024 26.2997 20.784C26.8117 20.528 27.3077 20.256 27.7877 19.968C28.2677 19.664 28.7237 19.352 29.1557 19.032C29.6037 18.696 30.0037 18.344 30.3557 17.976H32.8517V34.608H29.2757V22.632C28.7957 22.952 28.2597 23.248 27.6677 23.52C27.0757 23.776 26.4997 24 25.9397 24.192L24.8597 21.432Z" fill="white"/>
</svg>
