<svg width="66" height="49" viewBox="0 0 66 49" fill="none" xmlns="http://www.w3.org/2000/svg">
<path d="M4.37613 18.4413C-20.0723 53.2021 65.9088 62.4221 65.5619 22.9725C65.3317 -3.31755 24.3268 -9.92484 4.37613 18.4413Z" fill="#4050A5"/>
<path d="M39.728 20.7454C39.728 21.3534 39.608 21.9374 39.368 22.4974C39.128 23.0574 38.816 23.6014 38.432 24.1294C38.048 24.6414 37.616 25.1374 37.136 25.6174C36.656 26.0974 36.184 26.5534 35.72 26.9854C35.48 27.2094 35.216 27.4654 34.928 27.7534C34.656 28.0254 34.392 28.3054 34.136 28.5934C33.88 28.8814 33.648 29.1534 33.44 29.4094C33.248 29.6494 33.128 29.8494 33.08 30.0094H40.232V33.0094H29.144C29.112 32.8334 29.096 32.6094 29.096 32.3374C29.096 32.0654 29.096 31.8734 29.096 31.7614C29.096 30.9934 29.216 30.2894 29.456 29.6494C29.712 29.0094 30.04 28.4174 30.44 27.8734C30.84 27.3134 31.288 26.7934 31.784 26.3134C32.296 25.8334 32.8 25.3534 33.296 24.8734C33.68 24.5054 34.04 24.1614 34.376 23.8414C34.712 23.5054 35.008 23.1854 35.264 22.8814C35.52 22.5614 35.72 22.2494 35.864 21.9454C36.008 21.6254 36.08 21.3054 36.08 20.9854C36.08 20.2814 35.88 19.7854 35.48 19.4974C35.08 19.2094 34.584 19.0654 33.992 19.0654C33.56 19.0654 33.152 19.1374 32.768 19.2814C32.4 19.4094 32.056 19.5694 31.736 19.7614C31.432 19.9374 31.168 20.1214 30.944 20.3134C30.72 20.4894 30.552 20.6334 30.44 20.7454L28.664 18.2494C29.368 17.5934 30.184 17.0574 31.112 16.6414C32.056 16.2094 33.064 15.9934 34.136 15.9934C35.112 15.9934 35.952 16.1054 36.656 16.3294C37.36 16.5534 37.936 16.8734 38.384 17.2894C38.848 17.6894 39.184 18.1854 39.392 18.7774C39.616 19.3534 39.728 20.0094 39.728 20.7454Z" fill="white"/>
</svg>
