<svg width="79" height="77" viewBox="0 0 79 77" fill="none" xmlns="http://www.w3.org/2000/svg">
<path d="M59.9996 59.2437C81.6629 41.7559 56.8017 -1.12264 17.1157 19.5756C-6.19529 31.7334 30.2021 83.2979 59.9996 59.2437Z" fill="#4050A5"/>
<path d="M40.7376 49.36C40.3056 49.36 39.8496 49.328 39.3696 49.264C38.8896 49.216 38.4256 49.144 37.9776 49.048C37.5296 48.952 37.1216 48.848 36.7536 48.736C36.3856 48.624 36.0976 48.52 35.8896 48.424L36.5856 45.448C37.0016 45.624 37.5296 45.816 38.1696 46.024C38.8256 46.216 39.6336 46.312 40.5936 46.312C41.6976 46.312 42.5056 46.104 43.0176 45.688C43.5296 45.272 43.7856 44.712 43.7856 44.008C43.7856 43.576 43.6896 43.216 43.4976 42.928C43.3216 42.624 43.0736 42.384 42.7536 42.208C42.4336 42.016 42.0496 41.888 41.6016 41.824C41.1696 41.744 40.7056 41.704 40.2096 41.704H38.8176V38.824H40.4016C40.7536 38.824 41.0896 38.792 41.4096 38.728C41.7456 38.664 42.0416 38.56 42.2976 38.416C42.5536 38.256 42.7536 38.048 42.8976 37.792C43.0576 37.52 43.1376 37.184 43.1376 36.784C43.1376 36.48 43.0736 36.216 42.9456 35.992C42.8176 35.768 42.6496 35.584 42.4416 35.44C42.2496 35.296 42.0176 35.192 41.7456 35.128C41.4896 35.048 41.2256 35.008 40.9536 35.008C40.2656 35.008 39.6256 35.112 39.0336 35.32C38.4576 35.528 37.9296 35.784 37.4496 36.088L36.1776 33.472C36.4336 33.312 36.7296 33.144 37.0656 32.968C37.4176 32.792 37.8016 32.632 38.2176 32.488C38.6336 32.344 39.0736 32.224 39.5376 32.128C40.0176 32.032 40.5216 31.984 41.0496 31.984C42.0256 31.984 42.8656 32.104 43.5696 32.344C44.2896 32.568 44.8816 32.896 45.3456 33.328C45.8096 33.744 46.1536 34.24 46.3776 34.816C46.6016 35.376 46.7136 35.992 46.7136 36.664C46.7136 37.32 46.5296 37.96 46.1616 38.584C45.7936 39.192 45.2976 39.656 44.6736 39.976C45.5376 40.328 46.2016 40.856 46.6656 41.56C47.1456 42.248 47.3856 43.08 47.3856 44.056C47.3856 44.824 47.2576 45.536 47.0016 46.192C46.7456 46.832 46.3456 47.392 45.8016 47.872C45.2576 48.336 44.5616 48.704 43.7136 48.976C42.8816 49.232 41.8896 49.36 40.7376 49.36Z" fill="white"/>
</svg>
